{
.appVersion = "3151";
.formatVersion = 3;
classes = (
{
automatic = 1;
code = "A Aacute Abreve Acircumflex Adieresis Agrave Amacron Aogonek Aring Atilde AE B C Cacute Ccaron Ccedilla D Eth Dcaron Dcroat E Eacute Ecaron Ecircumflex Edieresis Edotaccent Egrave Emacron Eogonek F G Gcommaaccent H I IJ Iacute Icircumflex Idieresis Idotaccent Igrave Imacron Iogonek J Jacute K Kcommaaccent L Lacute Lcaron Lcommaaccent Lslash M N Nacute Ncaron Ncommaaccent Ntilde O Oacute Ocircumflex Odieresis Ograve Ohungarumlaut Omacron Oslash Otilde OE P Thorn Q R Racute Rcaron Rcommaaccent S Sacute Scaron Scedilla Germandbls T Tcaron Tcedilla U Uacute Ucircumflex Udieresis Ugrave Uhungarumlaut Umacron Uogonek Uring V W Wacute Wcircumflex Wdieresis Wgrave X Y Yacute Ycircumflex Ydieresis Ygrave Z Zacute Zcaron Zdotaccent D.ss01 Q.ss01 R.ss01";
name = Uppercase;
}
);
date = "2023-03-29 09:01:27 +0000";
familyName = Astrograph;
featurePrefixes = (
{
automatic = 1;
code = "languagesystem DFLT dflt;

languagesystem latn dflt;
languagesystem latn AZE;
languagesystem latn CRT;
languagesystem latn KAZ;
languagesystem latn TAT;
languagesystem latn TRK;
languagesystem latn NLD;
";
name = Languagesystems;
}
);
features = (
{
automatic = 1;
code = "feature locl;
feature ss01;
";
tag = aalt;
},
{
automatic = 1;
code = "lookup ccmp_Other_1 {
	@CombiningTopAccents = [acutecomb brevecomb caroncomb circumflexcomb commaturnedabovecomb dieresiscomb dotaccentcomb gravecomb hungarumlautcomb macroncomb ringcomb tildecomb];
	@CombiningNonTopAccents = [cedillacomb ogonekcomb];
	sub [i]' @CombiningTopAccents by [idotless];
	sub [i]' @CombiningNonTopAccents @CombiningTopAccents by [idotless];
} ccmp_Other_1;
";
tag = ccmp;
},
{
automatic = 1;
code = "lookup locl_latn_0 {
	script latn;
	language AZE;
	sub i by idotaccent;
	language CRT;
	sub i by idotaccent;
	language KAZ;
	sub i by idotaccent;
	language TAT;
	sub i by idotaccent;
	language TRK;
	sub i by idotaccent;
} locl_latn_0;

lookup locl_latn_1 {

glyphs = (
{
glyphname = A;
kernLeft = A;
kernRight = A;
lastChange = "2023-03-30 02:57:02 +0000";
layers = (
{
anchors = (
{
name = bottom;
pos = (744,0);
},
{
name = bottom_2;
pos = (1167,0);
},
{
name = top;
pos = (744,1000);
}
);
layerId = m01;
shapes = (
{
closed = 1;
nodes = (
(322,0,ls),
(333,0,o),
(340,5,o),
(345,15,cs),
(741,810,l),
(676,770,l),
(814,770,l),
(749,810,l),
(1144,15,ls),
(1149,5,o),
(1156,0,o),
(1167,0,cs),
(1399,0,ls),
(1414,0,o),
(1420,10,o),
(1413,24,cs),
(936,985,ls),
(931,995,o),
(924,1000,o),
(913,1000,cs),
(577,1000,ls),
(566,1000,o),
(559,995,o),
(554,985,cs),
(76,24,ls),
(69,10,o),
(75,0,o),
(90,0,cs)
);
},
{
closed = 1;
nodes = (
(1137,185,l),
(1137,415,l),
(350,415,l),
(350,185,l)
);
}
);
width = 1489;
}
);
unicode = (65,97);
},
{
glyphname = AE;
lastChange = "2023-03-30 02:57:02 +0000";
layers = (
{
layerId = m01;
shapes = (
{
closed = 1;
nodes = (
(321,0,ls),
(331,0,o),
(339,3,o),
(345,12,cs),
(919,810,l),
(844,785,l),
(2089,785,ls),
(2102,785,o),
(2109,792,o),
(2109,805,cs),
(2109,980,ls),
(2109,993,o),
(2102,1000,o),
(2089,1000,cs),
(744,1000,ls),
(734,1000,o),
(726,996,o),
(720,987,cs),
(68,24,ls),
(59,11,o),
(65,0,o),
(81,0,cs)
);
},
{
closed = 1;
nodes = (
(1052,185,ls),
(1065,185,o),
(1072,192,o),
(1072,205,cs),
(1072,395,ls),
(1072,408,o),
(1065,415,o),
(1052,415,cs),
(405,415,ls),
(392,415,o),
(385,408,o),
(385,395,cs),
(385,205,ls),
(385,192,o),
(392,185,o),
(405,185,cs)
);
},
{
closed = 1;
nodes = (
(1237,-1,ls),
(1250,-1,o),
(1257,6,o),
(1257,19,cs),
(1257,980,ls),
(1257,993,o),
(1250,1000,o),
(1237,1000,cs),
(1027,1000,ls),
(1014,1000,o),
(1007,993,o),
(1007,980,cs),
(1007,19,ls),
(1007,6,o),
(1014,-1,o),
(1027,-1,cs)
);
},
{
closed = 1;
nodes = (
(2089,0,ls),
(2102,0,o),
(2109,7,o),
(2109,20,cs),
(2109,195,ls),
(2109,208,o),
(2102,215,o),
(2089,215,cs),
(1199,215,ls),
(1186,215,o),
(1179,208,o),
(1179,195,cs),
(1179,20,ls),
(1179,7,o),
(1186,0,o),
(1199,0,cs)
);
},
{
closed = 1;
nodes = (
(1964,400,ls),
(1977,400,o),
(1984,407,o),
(1984,420,cs),
(1984,580,ls),
(1984,593,o),
(1977,600,o),
(1964,600,cs),
(1199,600,ls),
(1186,600,o),
(1179,593,o),
(1179,580,cs),
(1179,420,ls),
(1179,407,o),
(1186,400,o),
(1199,400,cs)
);
}
);
width = 2173;
}
);
unicode = (198,230);
},
{
glyphname = B;
lastChange = "2023-03-30 02:57:02 +0000";
layers = (
{
anchors = (
{
name = top;
pos = (604,1000);
}
);
layerId = m01;
shapes = (
{
closed = 1;
nodes = (
(925,0,ls),
(1139,0,o),
(1221,71,o),
(1221,255,cs),
(1221,446,o),
(1148,510,o),
(927,510,cs),
(129,510,l),
(129,401,l),
(884,401,ls),
(932,401,o),
(969,365,o),
(969,318,cs),
(969,269,o),
(932,230,o),
(884,230,cs),
(129,230,l),
(129,0,l)
);
},
{
closed = 1;
nodes = (
(314,0,l),
(314,1000,l),
(84,1000,ls),
(71,1000,o),
(64,993,o),
(64,980,cs),
(64,20,ls),
(64,7,o),
(71,0,o),
(84,0,cs)
);
},
{
closed = 1;
nodes = (
(877,492,ls),
(1098,492,o),
(1171,554,o),
(1171,739,cs),
(1171,928,o),
(1089,1000,o),
(875,1000,cs),
(129,1000,l),
(129,770,l),
(831,770,ls),
(879,770,o),
(916,733,o),
(916,685,cs),
(916,637,o),
(879,601,o),
(831,601,cs),
(129,601,l),
(129,492,l)
);
}
);
width = 1285;
}
);
unicode = (66,98);
},
{
glyphname = C;
kernLeft = O;
kernRight = O;
lastChange = "2023-03-30 02:57:02 +0000";
layers = (
{
anchors = (
{
name = bottom;
pos = (704,0);
},
{
name = top;
pos = (704,1000);
}
);
layerId = m01;
shapes = (
{
closed = 1;
nodes = (
(1034,0,ls),
(1243,0,o),
(1344,101,o),
(1344,310,cs),
(1344,380,ls),
(1344,393,o),
(1337,400,o),
(1324,400,cs),
(1114,400,ls),
(1101,400,o),
(1094,393,o),
(1094,380,cs),
(1094,310,ls),
(1094,276,o),
(1068,250,o),
(1034,250,cs),
(374,250,ls),
(340,250,o),
(314,276,o),
(314,310,cs),
(314,690,ls),
(314,724,o),
(340,750,o),
(374,750,cs),
(1034,750,ls),
(1068,750,o),
(1094,724,o),
(1094,690,cs),
(1094,620,ls),
(1094,607,o),
(1101,600,o),
(1114,600,cs),
(1324,600,ls),
(1337,600,o),
(1344,607,o),
(1344,620,cs),
(1344,690,ls),
(1344,899,o),
(1243,1000,o),
(1034,1000,cs),
(374,1000,ls),
(165,1000,o),
(64,899,o),
(64,690,cs),
(64,310,ls),
(64,101,o),
(165,0,o),
(374,0,cs)
);
}
);
width = 1408;
}
);
unicode = (67,99);
},
{
glyphname = D;
kernLeft = I;
kernRight = O;
lastChange = "2023-03-30 02:57:02 +0000";
layers = (
{
anchors = (
{
name = top;
pos = (689,1000);
}
);
layerId = m01;
shapes = (
{
closed = 1;
nodes = (
(1034,0,ls),
(1243,0,o),
(1344,101,o),
(1344,310,cs),
(1344,690,ls),
(1344,899,o),
(1243,1000,o),
(1034,1000,cs),
(84,1000,ls),
(71,1000,o),
(64,993,o),
(64,980,cs),
(64,20,ls),
(64,7,o),
(71,0,o),
(84,0,cs)
);
},
{
closed = 1;
nodes = (
(314,795,l),
(269,750,l),
(1034,750,ls),
(1068,750,o),
(1094,724,o),
(1094,690,cs),
(1094,310,ls),
(1094,276,o),
(1068,250,o),
(1034,250,cs),
(269,250,l),
(314,205,l)
);
}
);
width = 1408;
}
);
unicode = (68,100);
},
{
glyphname = Eth;
lastChange = "2023-03-30 02:57:02 +0000";
layers = (
{
layerId = m01;
shapes = (
{
closed = 1;
nodes = (
(544,432,ls),
(557,432,o),
(564,439,o),
(564,452,cs),
(564,542,ls),
(564,555,o),
(557,562,o),
(544,562,cs),
(84,562,ls),
(71,562,o),
(64,555,o),
(64,542,cs),
(64,452,ls),
(64,439,o),
(71,432,o),
(84,432,cs)
);
},
{
pos = (126,0);
ref = D;
}
);
width = 1534;
}
);
unicode = (208,240);
},
{
glyphname = E;
lastChange = "2023-03-30 04:14:28 +0000";
layers = (
{
anchors = (
{
name = bottom;
pos = (670,0);
},
{
name = top;
pos = (670,1000);
}
);
layerId = m01;
shapes = (
{
closed = 1;
nodes = (
(1256,0,ls),
(1269,0,o),
(1276,7,o),
(1276,20,cs),
(1276,195,ls),
(1276,208,o),
(1269,215,o),
(1256,215,cs),
(269,215,l),
(314,170,l),
(314,830,l),
(269,785,l),
(1256,785,ls),
(1269,785,o),
(1276,792,o),
(1276,805,cs),
(1276,980,ls),
(1276,993,o),
(1269,1000,o),
(1256,1000,cs),
(84,1000,ls),
(71,1000,o),
(64,993,o),
(64,980,cs),
(64,20,ls),
(64,7,o),
(71,0,o),
(84,0,cs)
);
},
{
closed = 1;
nodes = (
(1131,400,ls),
(1144,400,o),
(1151,407,o),
(1151,420,cs),
(1151,580,ls),
(1151,593,o),
(1144,600,o),
(1131,600,cs),
(209,600,ls),
(196,600,o),
(189,593,o),
(189,580,cs),
(189,420,ls),
(189,407,o),
(196,400,o),
(209,400,cs)
);
}
);
width = 1340;
}
);
unicode = (69,101);
},
{
glyphname = F;
lastChange = "2023-03-30 04:14:16 +0000";
layers = (
{
anchors = (
{
name = top;
pos = (670,1000);
}
);
layerId = m01;
shapes = (
{
closed = 1;
nodes = (
(294,0,ls),
(307,0,o),
(314,7,o),
(314,20,cs),
(314,829,l),
(269,785,l),
(1256,785,ls),
(1269,785,o),
(1276,792,o),
(1276,805,cs),
(1276,980,ls),
(1276,993,o),
(1269,1000,o),
(1256,1000,cs),
(84,1000,ls),
(71,1000,o),
(64,993,o),
(64,980,cs),
(64,20,ls),
(64,7,o),
(71,0,o),
(84,0,cs)
);
},
{
closed = 1;
nodes = (
(1131,400,ls),
(1144,400,o),
(1151,407,o),
(1151,420,cs),
(1151,580,ls),
(1151,593,o),
(1144,600,o),
(1131,600,cs),
(209,600,ls),
(196,600,o),
(189,593,o),
(189,580,cs),
(189,420,ls),
(189,407,o),
(196,400,o),
(209,400,cs)
);
}
);
width = 1340;
}
);
unicode = (70,102);
},
{
glyphname = G;
kernLeft = O;
kernRight = O;
lastChange = "2023-03-30 02:57:02 +0000";
layers = (
{
anchors = (
{
name = bottom;
pos = (704,0);
},
{
name = top;
pos = (704,1000);
}
);
layerId = m01;
shapes = (
{
closed = 1;
nodes = (
(1034,0,ls),
(1243,0,o),
(1344,101,o),
(1344,310,cs),
(1344,540,ls),
(1344,553,o),
(1337,560,o),
(1324,560,cs),
(709,560,ls),
(696,560,o),
(689,553,o),
(689,540,cs),
(689,380,ls),
(689,367,o),
(696,360,o),
(709,360,cs),
(1139,360,l),
(1094,405,l),
(1094,310,ls),
(1094,276,o),
(1068,250,o),
(1034,250,cs),
(374,250,ls),
(340,250,o),
(314,276,o),
(314,310,cs),
(314,690,ls),
(314,724,o),
(340,750,o),
(374,750,cs),
(1034,750,ls),
(1062,750,o),
(1084,733,o),
(1091,708,cs),
(1095,696,o),
(1101,690,o),
(1113,690,cs),
(1324,690,ls),
(1337,690,o),
(1344,697,o),
(1344,710,cs),
(1337,906,o),
(1236,1000,o),
(1034,1000,cs),
(374,1000,ls),
(165,1000,o),
(64,899,o),
(64,690,cs),
(64,310,ls),
(64,101,o),
(165,0,o),
(374,0,cs)
);
}
);
width = 1408;
}
);
unicode = (71,103);
},
{
glyphname = H;
lastChange = "2023-03-30 02:57:02 +0000";
layers = (
{
anchors = (
{
name = top;
pos = (662,1000);
}
);
layerId = m01;
shapes = (
{
closed = 1;
nodes = (
(1239,-1,ls),
(1252,-1,o),
(1259,6,o),
(1259,19,cs),
(1259,980,ls),
(1259,993,o),
(1252,1000,o),
(1239,1000,cs),
(1029,1000,ls),
(1016,1000,o),
(1009,993,o),
(1009,980,cs),
(1009,19,ls),
(1009,6,o),
(1016,-1,o),
(1029,-1,cs)
);
},
{
closed = 1;
nodes = (
(294,-1,ls),
(307,-1,o),
(314,6,o),
(314,19,cs),
(314,980,ls),
(314,993,o),
(307,1000,o),
(294,1000,cs),
(84,1000,ls),
(71,1000,o),
(64,993,o),
(64,980,cs),
(64,19,ls),
(64,6,o),
(71,-1,o),
(84,-1,cs)
);
},
{
closed = 1;
nodes = (
(1114,385,ls),
(1127,385,o),
(1134,392,o),
(1134,405,cs),
(1134,595,ls),
(1134,608,o),
(1127,615,o),
(1114,615,cs),
(209,615,ls),
(196,615,o),
(189,608,o),
(189,595,cs),
(189,405,ls),
(189,392,o),
(196,385,o),
(209,385,cs)
);
}
);
width = 1323;
}
);
unicode = (72,104);
},
{
glyphname = I;
lastChange = "2023-03-30 05:04:09 +0000";
layers = (
{
anchors = (
{
name = bottom;
pos = (200,0);
},
{
name = top;
pos = (200,1000);
}
);
layerId = m01;
shapes = (
{
closed = 1;
nodes = (
(305,0,ls),
(318,0,o),
(325,7,o),
(325,20,cs),
(325,980,ls),
(325,993,o),
(318,1000,o),
(305,1000,cs),
(95,1000,ls),
(82,1000,o),
(75,993,o),
(75,980,cs),
(75,20,ls),
(75,7,o),
(82,0,o),
(95,0,cs)
);
}
);
width = 400;
}
);
unicode = 73;
},
{
glyphname = IJ;
lastChange = "2023-03-30 02:57:02 +0000";
layers = (
{
layerId = m01;
shapes = (
{
closed = 1;
nodes = (
(1088,-1,o),
(1189,100,o),
(1189,309,cs),
(1189,980,ls),
(1189,993,o),
(1182,1000,o),
(1169,1000,cs),
(959,1000,ls),
(946,1000,o),
(939,993,o),
(939,980,cs),
(939,309,ls),
(939,275,o),
(913,249,o),
(879,249,c),
(374,250,l),
(340,250,o),
(314,276,o),
(314,310,cs),
(314,319,o),
(307,330,o),
(294,330,cs),
(84,330,ls),
(71,330,o),
(64,322,o),
(64,309,cs),
(64,100,o),
(164.823,0,o),
(374,0,c),
(879,-1,l)
);
},
{
closed = 1;
nodes = (
(294,455,ls),
(307,455,o),
(314,462,o),
(314,475,cs),
(314,980,ls),
(314,993,o),
(307,1000,o),
(294,1000,cs),
(84,1000,ls),
(71,1000,o),
(64,993,o),
(64,980,cs),
(64,475,ls),
(64,462,o),
(71,455,o),
(84,455,cs)
);
}
);
width = 1253;
}
);
unicode = (306,307);
},
{
glyphname = J;
kernLeft = J;
kernRight = O;
lastChange = "2023-03-30 05:05:55 +0000";
layers = (
{
anchors = (
{
name = top;
pos = (1064,1000);
}
);
layerId = m01;
shapes = (
{
closed = 1;
nodes = (
(1088,-1,o),
(1189,100,o),
(1189,309,cs),
(1189,980,ls),
(1189,993,o),
(1182,1000,o),
(1169,1000,cs),
(959,1000,ls),
(946,1000,o),
(939,993,o),
(939,980,cs),
(939,309,ls),
(939,275,o),
(913,249,o),
(879,249,c),
(374,250,l),
(340,250,o),
(314,276,o),
(314,310,cs),
(314,409,ls),
(314,418,o),
(307,429,o),
(294,429,cs),
(84,429,ls),
(71,429,o),
(64,422,o),
(64,409,cs),
(64,309,ls),
(64,100,o),
(164.823,0,o),
(374,0,c),
(879,-1,l)
);
}
);
width = 1253;
}
);
unicode = (74,106);
},
{
glyphname = K;
lastChange = "2023-03-30 02:57:02 +0000";
layers = (
{
anchors = (
{
name = bottom;
pos = (609,0);
},
{
name = top;
pos = (609,1000);
}
);
layerId = m01;
shapes = (
{
closed = 1;
nodes = (
(1209,0,ls),
(1226,0,o),
(1231,12,o),
(1219,25,cs),
(656,605,ls),
(649,613,o),
(641,615,o),
(631,615,cs),
(209,615,ls),
(196,615,o),
(189,608,o),
(189,595,cs),
(189,405,ls),
(189,392,o),
(196,385,o),
(209,385,cs),
(593,385,l),
(517,417,l),
(913,10,ls),
(920,2,o),
(928,0,o),
(938,0,cs)
);
},
{
closed = 1;
nodes = (
(294,0,ls),
(307,0,o),
(314,7,o),
(314,20,cs),
(314,980,ls),
(314,993,o),
(307,1000,o),
(294,1000,cs),
(84,1000,ls),
(71,1000,o),
(64,993,o),
(64,980,cs),
(64,20,ls),
(64,7,o),
(71,0,o),
(84,0,cs)
);
},
{
closed = 1;
nodes = (
(676,426,o),
(686,425,o),
(695,435,cs),
(1219,975,ls),
(1231,988,o),
(1226,1000,o),
(1209,1000,cs),
(938,1000,ls),
(928,1000,o),
(920,998,o),
(913,990,cs),
(529,594,ls),
(520,584,o),
(521,575,o),
(530,566,cs),
(667,435,ls)
);
}
);
width = 1275;
}
);
unicode = (75,107);
},
{
glyphname = L;
kernLeft = I;
kernRight = L;
lastChange = "2023-03-30 02:57:02 +0000";
layers = (
{
anchors = (
{
name = bottom;
pos = (532,0);
},
{
name = top;
pos = (189,1000);
},
{
name = top_2;
pos = (564,530);
}
);
layerId = m01;
shapes = (
{
closed = 1;
nodes = (
(980,0,ls),
(993,0,o),
(1000,7,o),
(1000,20,cs),
(1000,210,ls),
(1000,223,o),
(993,230,o),
(980,230,cs),
(269,230,l),
(314,185,l),
(314,980,ls),
(314,993,o),
(307,1000,o),
(294,1000,cs),
(84,1000,ls),
(71,1000,o),
(64,993,o),
(64,980,cs),
(64,20,ls),
(64,7,o),
(71,0,o),
(84,0,cs)
);
}
);
width = 1064;
}
);
unicode = (76,108);
},
{
glyphname = Lslash;
lastChange = "2023-03-30 02:57:02 +0000";
layers = (
{
layerId = m01;
shapes = (
{
closed = 1;
nodes = (
(550,635,ls),
(560,641,o),
(564,648,o),
(564,659,cs),
(564,745,ls),
(564,760,o),
(553,767,o),
(540,759,cs),
(78,497,ls),
(68,491,o),
(64,484,o),
(64,473,cs),
(64,387,ls),
(64,372,o),
(75,365,o),
(88,373,cs)
);
},
{
pos = (123,0);
ref = L;
}
);
width = 1187;
}
);
unicode = (321,322);
},
{
glyphname = M;
lastChange = "2023-03-30 02:57:02 +0000";
layers = (
{
anchors = (
{
name = top;
pos = (876,1000);
}
);
layerId = m01;
shapes = (
{
closed = 1;
nodes = (
(294,0,ls),
(307,0,o),
(314,7,o),
(314,20,cs),
(314,795,l),
(269,750,l),
(398,750,l),
(333,790,l),
(729,14,ls),
(734,4,o),
(741,0,o),
(752,0,cs),
(1000,0,ls),
(1011,0,o),
(1018,4,o),
(1023,14,cs),
(1419,790,l),
(1354,750,l),
(1483,750,l),
(1438,795,l),
(1438,20,ls),
(1438,7,o),
(1445,0,o),
(1458,0,cs),
(1668,0,ls),
(1681,0,o),
(1688,7,o),
(1688,20,cs),
(1688,980,ls),
(1688,993,o),
(1681,1000,o),
(1668,1000,cs),
(1261,1000,ls),
(1250,1000,o),
(1243,996,o),
(1238,986,cs),
(856,235,l),
(896,235,l),
(514,986,ls),
(509,996,o),
(502,1000,o),
(491,1000,cs),
(84,1000,ls),
(71,1000,o),
(64,993,o),
(64,980,cs),
(64,20,ls),
(64,7,o),
(71,0,o),
(84,0,cs)
);
}
);
width = 1752;
}
);
unicode = (77,109);
},
{
glyphname = N;
lastChange = "2023-03-30 02:57:02 +0000";
layers = (
{
anchors = (
{
name = bottom;
pos = (717,0);
},
{
name = top;
pos = (717,1000);
}
);
layerId = m01;
shapes = (
{
closed = 1;
nodes = (
(294,0,ls),
(307,0,o),
(314,7,o),
(314,20,cs),
(314,795,l),
(269,750,l),
(413,750,l),
(341,786,l),
(932,12,ls),
(938,4,o),
(946,0,o),
(956,0,cs),
(1349,0,ls),
(1362,0,o),
(1369,7,o),
(1369,20,cs),
(1369,980,ls),
(1369,993,o),
(1362,1000,o),
(1349,1000,cs),
(1139,1000,ls),
(1126,1000,o),
(1119,993,o),
(1119,980,cs),
(1119,205,l),
(1164,250,l),
(1020,250,l),
(1092,214,l),
(501,988,l),
(495,996,o),
(487,1000,o),
(477,1000,cs),
(84,1000,ls),
(71,1000,o),
(64,993,o),
(64,980,cs),
(64,20,ls),
(64,7,o),
(71,0,o),
(84,0,cs)
);
}
);
width = 1433;
}
);
unicode = (78,110);
},
{
glyphname = O;
kernLeft = O;
kernRight = O;
lastChange = "2023-03-30 02:57:02 +0000";
layers = (
{
anchors = (
{
name = top;
pos = (704,1000);
}
);
layerId = m01;
shapes = (
{
closed = 1;
nodes = (
(1034,0,l),
(1243,0,o),
(1344,101,o),
(1344,310,c),
(1344,690,l),
(1344,899,o),
(1243,1000,o),
(1034,1000,c),
(374,1000,l),
(164.823,1000,o),
(64,899.177,o),
(64,690,c),
(64,310,l),
(64,100.823,o),
(164.823,0,o),
(374,0,c)
);
},
{
closed = 1;
nodes = (
(340,250,o),
(314,276,o),
(314,310,c),
(314,690,l),
(314,724,o),
(340,750,o),
(374,750,c),
(1034,750,l),
(1068,750,o),
(1094,724,o),
(1094,690,c),
(1094,310,l),
(1094,276,o),
(1068,250,o),
(1034,250,c),
(374,250,l)
);
}
);
width = 1408;
}
);
unicode = (79,111);
},
{
glyphname = Oslash;
lastChange = "2023-03-30 02:57:02 +0000";
layers = (
{
layerId = m01;
shapes = (
{
closed = 1;
nodes = (
(481,-125,ls),
(492,-125,o),
(501,-120,o),
(505,-110,cs),
(1035,1102,ls),
(1041,1116,o),
(1034,1125,o),
(1019,1125,cs),
(927,1125,ls),
(916,1125,o),
(907,1120,o),
(903,1110,cs),
(373,-102,ls),
(367,-116,o),
(374,-125,o),
(389,-125,cs)
);
},
{
ref = O;
}
);
width = 1408;
}
);
unicode = (216,248);
},
{
glyphname = OE;
kernLeft = O;
kernRight = E;
lastChange = "2023-03-30 02:57:02 +0000";
layers = (
{
layerId = m01;
shapes = (
{
closed = 1;
nodes = (
(1094,0,ls),
(1303,0,o),
(1404,101,o),
(1404,310,cs),
(1404,690,ls),
(1404,899,o),
(1303,1000,o),
(1094,1000,cs),
(374,1000,ls),
(165,1000,o),
(64,899,o),
(64,690,cs),
(64,310,ls),
(64,101,o),
(165,0,o),
(374,0,cs)
);
},
{
closed = 1;
nodes = (
(340,250,o),
(314,276,o),
(314,310,cs),
(314,690,ls),
(314,724,o),
(340,750,o),
(374,750,cs),
(1094,750,ls),
(1128,750,o),
(1154,724,o),
(1154,690,cs),
(1154,310,ls),
(1154,276,o),
(1128,250,o),
(1094,250,cs),
(374,250,ls)
);
},
{
closed = 1;
nodes = (
(2271,0,ls),
(2284,0,o),
(2291,7,o),
(2291,20,cs),
(2291,195,ls),
(2291,208,o),
(2284,215,o),
(2271,215,cs),
(1281,215,ls),
(1268,215,o),
(1261,208,o),
(1261,195,cs),
(1261,20,ls),
(1261,7,o),
(1268,0,o),
(1281,0,cs)
);
},
{
closed = 1;
nodes = (
(2146,400,ls),
(2159,400,o),
(2166,407,o),
(2166,420,cs),
(2166,580,ls),
(2166,593,o),
(2159,600,o),
(2146,600,cs),
(1381,600,ls),
(1368,600,o),
(1361,593,o),
(1361,580,cs),
(1361,420,ls),
(1361,407,o),
(1368,400,o),
(1381,400,cs)
);
},
{
closed = 1;
nodes = (
(2271,785,ls),
(2284,785,o),
(2291,792,o),
(2291,805,cs),
(2291,980,ls),
(2291,993,o),
(2284,1000,o),
(2271,1000,cs),
(1281,1000,ls),
(1268,1000,o),
(1261,993,o),
(1261,980,cs),
(1261,805,ls),
(1261,792,o),
(1268,785,o),
(1281,785,cs)
);
}
);
width = 2355;
}
);
unicode = (338,339);
},
{
glyphname = P;
kernLeft = I;
kernRight = P;
lastChange = "2023-03-30 02:57:02 +0000";
layers = (
{
anchors = (
{
name = top;
pos = (637,1000);
}
);
layerId = m01;
shapes = (
{
closed = 1;
nodes = (
(899,277,ls),
(1108,277,o),
(1209,378,o),
(1209,587,cs),
(1209,690,ls),
(1209,899,o),
(1108,1000,o),
(899,1000,cs),
(259,1000,ls),
(246,1000,o),
(239,993,o),
(239,980,cs),
(239,770,ls),
(239,757,o),
(246,750,o),
(259,750,cs),
(899,750,ls),
(933,750,o),
(959,724,o),
(959,690,cs),
(959,587,ls),
(959,553,o),
(933,527,o),
(899,527,cs),
(259,527,ls),
(246,527,o),
(239,520,o),
(239,507,cs),
(239,297,ls),
(239,284,o),
(246,277,o),
(259,277,cs)
);
},
{
closed = 1;
nodes = (
(294,0,ls),
(307,0,o),
(314,7,o),
(314,20,cs),
(314,980,ls),
(314,993,o),
(307,1000,o),
(294,1000,cs),
(84,1000,ls),
(71,1000,o),
(64,993,o),
(64,980,cs),
(64,20,ls),
(64,7,o),
(71,0,o),
(84,0,cs)
);
}
);
width = 1273;
}
);
unicode = (80,112);
},
{
glyphname = Thorn;
lastChange = "2023-03-30 02:57:02 +0000";
layers = (
{
layerId = m01;
shapes = (
{
closed = 1;
nodes = (
(899,164,ls),
(1108,164,o),
(1209,265,o),
(1209,474,cs),
(1209,526,ls),
(1209,736,o),
(1108,836,o),
(899,836,cs),
(259,836,ls),
(246,836,o),
(239,830,o),
(239,816,cs),
(239,606,ls),
(239,594,o),
(246,586,o),
(259,586,cs),
(899,586,ls),
(933,586,o),
(959,561,o),
(959,526,cs),
(959,474,ls),
(959,440,o),
(933,414,o),
(899,414,cs),
(259,414,ls),
(246,414,o),
(239,407,o),
(239,394,cs),
(239,184,ls),
(239,171,o),
(246,164,o),
(259,164,cs)
);
},
{
closed = 1;
nodes = (
(294,0,ls),
(307,0,o),
(314,7,o),
(314,20,cs),
(314,980,ls),
(314,993,o),
(307,1000,o),
(294,1000,cs),
(84,1000,ls),
(71,1000,o),
(64,993,o),
(64,980,cs),
(64,20,ls),
(64,7,o),
(71,0,o),
(84,0,cs)
);
}
);
width = 1273;
}
);
unicode = (222,254);
},
{
glyphname = Q;
kernLeft = O;
kernRight = O;
lastChange = "2023-03-30 02:57:02 +0000";
layers = (
{
anchors = (
{
name = top;
pos = (704,1000);
}
);
layerId = m01;
shapes = (
{
closed = 1;
nodes = (
(1251,-83,o),
(1261,-83,o),
(1270,-74,cs),
(1418,74,ls),
(1427,83,o),
(1427,93,o),
(1418,102,cs),
(1354,166,ls),
(1346,174,o),
(1344,180,o),
(1344,190,cs),
(1344,690,ls),
(1344,899,o),
(1243,1000,o),
(1034,1000,cs),
(374,1000,ls),
(165,1000,o),
(64,899,o),
(64,690,cs),
(64,310,ls),
(64,101,o),
(165,0,o),
(374,0,cs),
(1079,0,ls),
(1092,0,o),
(1099,7,o),
(1099,20,cs),
(1099,230,ls),
(1099,243,o),
(1092,250,o),
(1079,250,cs),
(374,250,ls),
(340,250,o),
(314,276,o),
(314,310,cs),
(314,690,ls),
(314,724,o),
(340,750,o),
(374,750,cs),
(1034,750,ls),
(1068,750,o),
(1094,724,o),
(1094,690,cs),
(1094,179,ls),
(1094,100,o),
(1111,57,o),
(1161,7,cs),
(1242,-74,ls)
);
}
);
width = 1465;
}
);
unicode = (81,113);
},
{
glyphname = R;
kernLeft = I;
kernRight = R;
lastChange = "2023-03-30 02:57:02 +0000";
layers = (
{
anchors = (
{
name = bottom;
pos = (645,0);
},
{
name = top;
pos = (645,1000);
}
);
guides = (
{
pos = (787,526);
}
);
layerId = m01;
shapes = (
{
closed = 1;
nodes = (
(937,417,ls),
(1158,417,o),
(1231,479,o),
(1231,664,cs),
(1231,739,ls),
(1231,928,o),
(1149,1000,o),
(935,1000,cs),
(209,1000,ls),
(196,1000,o),
(189,993,o),
(189,980,cs),
(189,790,ls),
(189,777,o),
(196,770,o),
(209,770,cs),
(896,770,ls),
(944,770,o),
(981,733,o),
(981,685,cs),
(981,610,ls),
(981,563,o),
(944,526,o),
(896,526,cs),
(209,526,ls),
(196,526,o),
(189,519,o),
(189,506,cs),
(189,417,l)
);
},
{
closed = 1;
nodes = (
(294,0,ls),
(307,0,o),
(314,7,o),
(314,20,cs),
(314,980,ls),
(314,993,o),
(307,1000,o),
(294,1000,cs),
(84,1000,ls),
(71,1000,o),
(64,993,o),
(64,980,cs),
(64,20,ls),
(64,7,o),
(71,0,o),
(84,0,cs)
);
},
{
closed = 1;
nodes = (
(1205,0,ls),
(1218,0,o),
(1225,7,o),
(1225,20,cs),
(1225,238,ls),
(1225,409,o),
(1091,451,o),
(870,451,cs),
(189,451,l),
(189,346,ls),
(189,333,o),
(196,326,o),
(209,326,cs),
(870,326,ls),
(948,326,o),
(974,304,o),
(974,238,cs),
(974,20,ls),
(974,7,o),
(981,0,o),
(994,0,cs)
);
}
);
width = 1295;
}
);
unicode = (82,114);
},
{
glyphname = S;
kernLeft = O;
kernRight = O;
lastChange = "2023-03-30 02:57:02 +0000";
layers = (
{
anchors = (
{
name = bottom;
pos = (689,0);
},
{
name = top;
pos = (689,1000);
}
);
layerId = m01;
shapes = (
{
closed = 1;
nodes = (
(1039,0,ls),
(1196,0,o),
(1314,65,o),
(1314,265,cs),
(1314,322,ls),
(1314,479,o),
(1203,589,o),
(1049,597,cs),
(356,633,ls),
(325,635,o),
(314,651,o),
(314,699,cs),
(314,723,ls),
(314,758,o),
(322,770,o),
(347,770,cs),
(1011,770,ls),
(1036,770,o),
(1044,758,o),
(1044,723,cs),
(1044,710,ls),
(1044,697,o),
(1051,690,o),
(1064,690,cs),
(1274,690,ls),
(1287,690,o),
(1294,697,o),
(1294,710,cs),
(1294,735,ls),
(1294,937,o),
(1174,1000,o),
(1019,1000,cs),
(339,1000,ls),
(185,1000,o),
(64,938,o),
(64,735,cs),
(64,678,ls),
(64,521,o),
(175,411,o),
(329,403,cs),
(1022,367,ls),
(1054,365,o),
(1064,349,o),
(1064,301,cs),
(1064,277,ls),
(1064,242,o),
(1056,230,o),
(1031,230,cs),
(367,230,ls),
(342,230,o),
(334,242,o),
(334,277,cs),
(334,290,ls),
(334,303,o),
(327,310,o),
(314,310,cs),
(104,310,ls),
(91,310,o),
(84,303,o),
(84,290,cs),
(84,265,ls),
(84,64,o),
(205,0,o),
(359,0,cs)
);
}
);
width = 1378;
},
{
associatedMasterId = m01;
layerId = "A5D2192D-09E8-4512-9741-3856DFF71263";
name = "Mar 29, 23 at 12:03";
shapes = (
{
attr = {
strokeHeight = 230;
strokeWidth = 250;
};
closed = 0;
nodes = (
(1169,690,l),
(1169,735,ls),
(1169,848,o),
(1132,885,o),
(1019,885,cs),
(339,885,ls),
(227,885,o),
(189,848,o),
(189,735,cs),
(189,678,ls),
(189,585,o),
(246,523,o),
(336,518,cs),
(1042,482,ls),
(1132,477,o),
(1189,415,o),
(1189,322,cs),
(1189,265,ls),
(1189,153,o),
(1152,115,o),
(1039,115,cs),
(359,115,ls),
(247,115,o),
(209,153,o),
(209,265,cs),
(209,310,l)
);
}
);
width = 1378;
}
);
unicode = (83,115);
},
{
glyphname = Germandbls;
lastChange = "2023-03-30 10:30:27 +0000";
layers = (
{
layerId = m01;
shapes = (
{
closed = 1;
nodes = (
(64,7,o),
(71,0,o),
(84,0,cs),
(294,0,ls),
(307,0,o),
(314,7,o),
(314,20,cs),
(314,690,ls),
(314,724,o),
(340,750,o),
(374,750,cs),
(691,750,l),
(665,808,l),
(536,561,o),
(680,396,o),
(892,378,cs),
(1022,367,ls),
(1050,365,o),
(1064,349,o),
(1064,321,cs),
(1064,277,ls),
(1064,246,o),
(1046,230,o),
(1011,230,cs),
(565,230,ls),
(552,230,o),
(545,223,o),
(545,210,cs),
(545,20,ls),
(545,7,o),
(552,0,o),
(565,0,cs),
(1039,0,ls),
(1196,0,o),
(1314,65,o),
(1314,265,cs),
(1314,322,ls),
(1314,479,o),
(1203,586,o),
(1049,597,cs),
(922,606,ls),
(877,609,o),
(861,644,o),
(881,691,cs),
(1001,978,ls),
(1007,992,o),
(1001,1001,o),
(986,1001,cs),
(374,1000,ls),
(165,1000,o),
(64,899.177,o),
(64,690,cs),
(64,20,ls)
);
}
);
width = 1383;
}
);
unicode = (7838,223);
},
{
glyphname = T;
kernLeft = T;
kernRight = T;
lastChange = "2023-03-30 02:57:02 +0000";
layers = (
{
anchors = (
{
name = bottom;
pos = (665,0);
},
{
name = top;
pos = (665,1000);
}
);
layerId = m01;
shapes = (
{
closed = 1;
nodes = (
(1245,770,ls),
(1258,770,o),
(1265,777,o),
(1265,790,cs),
(1265,980,ls),
(1265,993,o),
(1258,1000,o),
(1245,1000,cs),
(84,1000,ls),
(71,1000,o),
(64,993,o),
(64,980,cs),
(64,790,ls),
(64,777,o),
(71,770,o),
(84,770,cs)
);
},
{
closed = 1;
nodes = (
(770,0,ls),
(783,0,o),
(790,7,o),
(790,20,cs),
(790,865,ls),
(790,878,o),
(783,885,o),
(770,885,cs),
(560,885,ls),
(547,885,o),
(540,878,o),
(540,865,cs),
(540,20,ls),
(540,7,o),
(547,0,o),
(560,0,cs)
);
}
);
width = 1329;
}
);
unicode = (84,116);
},
{
glyphname = U;
kernLeft = O;
kernRight = O;
lastChange = "2023-03-30 02:57:02 +0000";
layers = (
{
anchors = (
{
name = bottom;
pos = (689,0);
},
{
name = bottom_2;
pos = (1005,0);
},
{
name = top;
pos = (689,1000);
}
);
layerId = m01;
shapes = (
{
closed = 1;
nodes = (
(1005,0,ls),
(1220,0,o),
(1314,94,o),
(1314,309,cs),
(1314,980,ls),
(1314,993,o),
(1307,1000,o),
(1294,1000,cs),
(1084,1000,ls),
(1071,1000,o),
(1064,993,o),
(1064,980,cs),
(1064,321,ls),
(1064,268,o),
(1046,250,o),
(993,250,cs),
(385,250,ls),
(332,250,o),
(314,268,o),
(314,321,cs),
(314,980,ls),
(314,993,o),
(307,1000,o),
(294,1000,cs),
(84,1000,ls),
(71,1000,o),
(64,993,o),
(64,980,cs),
(64,309,ls),
(64,94,o),
(158,0,o),
(373,0,cs)
);
}
);
width = 1378;
},
{
associatedMasterId = m01;
layerId = "63BE094B-5FA3-43C7-8B8E-D8ECC284FFB6";
name = "Mar 29, 23 at 12:05";
shapes = (
{
attr = {
strokeWidth = 250;
};
closed = 0;
nodes = (
(189,1000,l),
(189,309,ls),
(189,203,o),
(267,125,o),
(373,125,cs),
(1005,125,ls),
(1111,125,o),
(1189,203,o),
(1189,309,cs),
(1189,1000,l)
);
}
);
width = 1378;
}
);
unicode = (85,117);
},
{
glyphname = V;
kernLeft = V;
kernRight = V;
lastChange = "2023-03-30 02:57:02 +0000";
layers = (
{
anchors = (
{
name = top;
pos = (713,1000);
}
);
layerId = m01;
shapes = (
{
closed = 1;
nodes = (
(881,0,ls),
(892,0,o),
(899,5,o),
(904,15,cs),
(1381,976,ls),
(1388,990,o),
(1382,1000,o),
(1367,1000,cs),
(1135,1000,ls),
(1124,1000,o),
(1117,995,o),
(1112,985,cs),
(717,190,l),
(782,230,l),
(644,230,l),
(709,190,l),
(313,985,ls),
(308,995,o),
(301,1000,o),
(290,1000,cs),
(58,1000,ls),
(43,1000,o),
(37,990,o),
(44,976,cs),
(522,15,ls),
(527,5,o),
(534,0,o),
(545,0,cs)
);
}
);
width = 1425;
},
{
associatedMasterId = m01;
layerId = "48C42587-B266-437A-9BF1-00DFA7BAABD6";
name = "Mar 29, 23 at 12:06";
shapes = (
{
attr = {
lineCapEnd = "4";
lineCapStart = "4";
strokeHeight = 230;
strokeWidth = 250;
};
closed = 0;
nodes = (
(1256,1000,l),
(817,115,l),
(609,115,l),
(169,1000,l)
);
}
);
width = 1425;
}
);
unicode = (86,118);
},
{
glyphname = W;
kernLeft = V;
kernRight = V;
lastChange = "2023-03-30 02:57:02 +0000";
layers = (
{
anchors = (
{
name = top;
pos = (1096,1000);
}
);
layerId = m01;
shapes = (
{
closed = 1;
nodes = (
(817,0,ls),
(828,0,o),
(836,5,o),
(840,16,cs),
(1111,776,l),
(1081,776,l),
(1351,16,ls),
(1355,5,o),
(1363,0,o),
(1374,0,cs),
(1697,0,ls),
(1708,0,o),
(1717,5,o),
(1721,15,cs),
(2150,977,ls),
(2156,991,o),
(2149,1000,o),
(2134,1000,cs),
(1907,1000,ls),
(1896,1000,o),
(1887,995,o),
(1883,985,cs),
(1522,174,l),
(1585,215,l),
(1464,215,l),
(1524,173,l),
(1235,985,ls),
(1231,996,o),
(1223,1001,o),
(1212,1001,cs),
(979,1001,ls),
(968,1001,o),
(960,996,o),
(956,985,cs),
(667,173,l),
(727,215,l),
(607,215,l),
(670,174,l),
(309,985,ls),
(305,995,o),
(296,1000,o),
(285,1000,cs),
(58,1000,ls),
(43,1000,o),
(36,991,o),
(42,977,cs),
(471,15,ls),
(475,5,o),
(484,0,o),
(495,0,cs)
);
}
);
width = 2192;
},
{
associatedMasterId = m01;
layerId = "24222D89-8AEB-4403-B397-CC57AFF698B2";
name = "Mar 29, 23 at 12:06";
shapes = (
{
attr = {
lineCapEnd = "4";
lineCapStart = "4";
strokeHeight = 230;
strokeWidth = 250;
};
closed = 0;
nodes = (
(2025,1000,l),
(1579,0,l)
);
},
{
attr = {
strokeWidth = 215;
};
closed = 0;
nodes = (
(1576,107,l),
(1433,107,l),
(1153,893,l),
(1038,893,l),
(758,107,l),
(615,107,l)
);
},
{
attr = {
lineCapEnd = "4";
lineCapStart = "4";
strokeHeight = 230;
strokeWidth = 250;
};
closed = 0;
nodes = (
(167,1000,l),
(613,0,l)
);
}
);
width = 2192;
}
);
unicode = (87,119);
},
{
glyphname = X;
lastChange = "2023-03-30 02:57:02 +0000";
layers = (
{
anchors = (
{
name = top;
pos = (748,1000);
}
);
layerId = m01;
shapes = (
{
closed = 1;
nodes = (
(1398,0,ls),
(1415,0,o),
(1421,12,o),
(1409,25,cs),
(967,500,l),
(1409,975,ls),
(1421,988,o),
(1415,1000,o),
(1398,1000,cs),
(1133,1000,ls),
(1123,1000,o),
(1115,996,o),
(1108,989,cs),
(653,500,l),
(1108,11,ls),
(1115,4,o),
(1123,0,o),
(1133,0,cs)
);
},
{
closed = 1;
nodes = (
(363,0,ls),
(373,0,o),
(381,4,o),
(388,11,cs),
(843,500,l),
(388,989,ls),
(381,996,o),
(373,1000,o),
(363,1000,cs),
(98,1000,ls),
(81,1000,o),
(75,988,o),
(87,975,cs),
(529,500,l),
(87,25,ls),
(75,12,o),
(81,0,o),
(98,0,cs)
);
},
{
closed = 1;
nodes = (
(861,385,ls),
(874,385,o),
(881,392,o),
(881,405,cs),
(881,595,ls),
(881,608,o),
(874,615,o),
(861,615,cs),
(635,615,ls),
(622,615,o),
(615,608,o),
(615,595,cs),
(615,405,ls),
(615,392,o),
(622,385,o),
(635,385,cs)
);
}
);
width = 1496;
},
{
associatedMasterId = m01;
layerId = "41632FD3-C8EA-4964-9443-BC4810DFE50A";
name = "Mar 29, 23 at 12:06";
shapes = (
{
attr = {
lineCapEnd = "4";
lineCapStart = "4";
strokeWidth = 230;
};
closed = 0;
nodes = (
(221,1000,l),
(686,500,l),
(221,0,l)
);
},
{
attr = {
lineCapEnd = "4";
lineCapStart = "4";
strokeWidth = 230;
};
closed = 0;
nodes = (
(1275,1000,l),
(810,500,l),
(1275,0,l)
);
},
{
attr = {
strokeWidth = 230;
};
closed = 0;
nodes = (
(686,500,l),
(810,500,l)
);
}
);
width = 1496;
}
);
unicode = (88,120);
},
{
glyphname = Y;
kernLeft = Y;
kernRight = Y;
lastChange = "2023-03-30 02:57:02 +0000";
layers = (
{
anchors = (
{
name = top;
pos = (715,1000);
}
);
layerId = m01;
shapes = (
{
closed = 1;
nodes = (
(710,238,o),
(720,238,o),
(729,248,cs),
(1345,975,ls),
(1356,988,o),
(1351,1000,o),
(1334,1000,cs),
(1079,1000,ls),
(1069,1000,o),
(1061,997,o),
(1054,989,cs),
(686,553,l),
(744,553,l),
(376,989,ls),
(369,997,o),
(361,1000,o),
(351,1000,cs),
(96,1000,ls),
(79,1000,o),
(74,988,o),
(85,975,cs),
(701,248,ls)
);
},
{
closed = 1;
nodes = (
(820,0,ls),
(833,0,o),
(840,7,o),
(840,20,cs),
(840,389,ls),
(840,402,o),
(833,409,o),
(820,409,cs),
(610,409,ls),
(597,409,o),
(590,402,o),
(590,389,cs),
(590,20,ls),
(590,7,o),
(597,0,o),
(610,0,cs)
);
}
);
width = 1430;
},
{
associatedMasterId = m01;
layerId = "4D4AABA5-58AB-4C2A-B827-4CAA8EA21320";
name = "Mar 29, 23 at 12:06";
shapes = (
{
attr = {
lineCapEnd = "4";
lineCapStart = "4";
strokeWidth = 230;
};
closed = 0;
nodes = (
(1215,1000,l),
(715,409,l),
(215,1000,l)
);
},
{
attr = {
strokeWidth = 250;
};
closed = 0;
nodes = (
(715,409,l),
(715,0,l)
);
}
);
width = 1430;
}
);
unicode = (89,121);
},
{
glyphname = Z;
lastChange = "2023-03-30 02:57:02 +0000";
layers = (
{
anchors = (
{
name = top;
pos = (688,1000);
}
);
layerId = m01;
shapes = (
{
closed = 1;
nodes = (
(1246,0,ls),
(1259,0,o),
(1266,7,o),
(1266,20,cs),
(1266,210,ls),
(1266,223,o),
(1259,230,o),
(1246,230,cs),
(314,230,l),
(314,117,l),
(1255,758,ls),
(1264,764,o),
(1268,772,o),
(1268,782,cs),
(1268,980,ls),
(1268,993,o),
(1261,1000,o),
(1248,1000,cs),
(86,1000,ls),
(73,1000,o),
(66,993,o),
(66,980,cs),
(66,790,ls),
(66,777,o),
(73,770,o),
(86,770,cs),
(1018,770,l),
(1018,883,l),
(77,242,ls),
(68,236,o),
(64,228,o),
(64,218,cs),
(64,20,ls),
(64,7,o),
(71,0,o),
(84,0,cs)
);
}
);
width = 1332;
},
{
anchors = (
{
name = accent;
pos = (688,1250);
}
);
associatedMasterId = m01;
layerId = "797CAC0E-1EEB-4EDE-B26D-F1CBA909AB2D";
name = "Mar 29, 23 at 12:08";
shapes = (
{
attr = {
lineCapEnd = 4;
lineCapStart = 4;
strokeHeight = 230;
strokeWidth = 250;
};
closed = 0;
nodes = (
(66,885,l),
(1143,885,l),
(1143,825,l),
(189,175,l),
(189,115,l),
(1266,115,l)
);
}
);
width = 1332;
}
);
unicode = (90,122);
},
{
glyphname = D.ss01;
kernLeft = I;
kernRight = O;
lastChange = "2023-03-30 02:57:02 +0000";
layers = (
{
anchors = (
{
name = accent;
pos = (714,1250);
}
);
layerId = m01;
shapes = (
{
closed = 1;
nodes = (
(1066,0,ls),
(1275,0,o),
(1376,101,o),
(1376,310,cs),
(1376,690,ls),
(1376,899,o),
(1275,1000,o),
(1066,1000,cs),
(84,1000,ls),
(71,1000,o),
(64,993,o),
(64,980,cs),
(64,770,ls),
(64,757,o),
(71,750,o),
(84,750,cs),
(1066,750,ls),
(1100,750,o),
(1126,724,o),
(1126,690,cs),
(1126,310,ls),
(1126,276,o),
(1100,250,o),
(1066,250,cs),
(84,250,ls),
(71,250,o),
(64,243,o),
(64,230,cs),
(64,20,ls),
(64,7,o),
(71,0,o),
(84,0,cs)
);
},
{
closed = 1;
nodes = (
(421,125,l),
(421,875,l),
(171,875,l),
(171,125,l)
);
}
);
width = 1440;
}
);
},
{
glyphname = Q.ss01;
kernLeft = O;
kernRight = O;
lastChange = "2023-03-30 02:57:02 +0000";
layers = (
{
layerId = m01;
shapes = (
{
closed = 1;
nodes = (
(1143,-109,o),
(1153,-106,o),
(1159,-95,cs),
(1265,87,ls),
(1271,98,o),
(1269,108,o),
(1258,114,cs),
(1161,172,ls),
(1068,227,o),
(982,250,o),
(874,250,cs),
(374,250,ls),
(340,250,o),
(314,276,o),
(314,310,cs),
(314,690,ls),
(314,724,o),
(340,750,o),
(374,750,cs),
(1034,750,ls),
(1068,750,o),
(1094,724,o),
(1094,690,cs),
(1094,281,ls),
(1094,270,o),
(1099,263,o),
(1108,257,cs),
(1275,157,ls),
(1286,150,o),
(1297,153,o),
(1303,165,cs),
(1330,220,o),
(1344,290,o),
(1344,375,cs),
(1344,690,ls),
(1344,899,o),
(1243,1000,o),
(1034,1000,cs),
(374,1000,ls),
(165,1000,o),
(64,899,o),
(64,690,cs),
(64,310,ls),
(64,101,o),
(165,0,o),
(374,0,cs),
(874,0,ls),
(943,0,o),
(973,-9,o),
(1033,-44,cs),
(1132,-102,ls)
);
}
);
width = 1408;
},
{
associatedMasterId = m01;
layerId = "9AE7713A-2A49-4848-8A89-D9C6295BED77";
name = "Mar 29, 23 at 12:08";
shapes = (
{
attr = {
identifier = ID0x1648d9ed0;
strokeWidth = 250;
};
closed = 0;
nodes = (
(1248,-25,l),
(1097,64,ls),
(1023,108,o),
(960,125,o),
(874,125,cs),
(393,125,ls),
(240,125,o),
(189,176,o),
(189,329,cs),
(189,671,ls),
(189,824,o),
(240,875,o),
(393,875,cs),
(985,875,ls),
(1138,875,o),
(1189,824,o),
(1189,671,cs),
(1189,399,ls),
(1189,308,o),
(1186,285,o),
(1160,238,c)
);
}
);
width = 1378;
}
);
},
{
glyphname = R.ss01;
kernLeft = I;
kernRight = R;
lastChange = "2023-03-30 05:03:23 +0000";
layers = (
{
layerId = m01;
shapes = (
{
closed = 1;
nodes = (
(1108,277,o),
(1209,378,o),
(1209,587,cs),
(1209,690,ls),
(1209,899,o),
(1108,1000,o),
(899,1000,cs),
(259,1000,ls),
(246,1000,o),
(239,993,o),
(239,980,cs),
(239,770,ls),
(239,757,o),
(246,750,o),
(259,750,cs),
(899,750,ls),
(933,750,o),
(959,724,o),
(959,690,cs),
(959,587,ls),
(959,553,o),
(933,527,o),
(899,527,cs),
(259,527,ls),
(246,527,o),
(239,520,o),
(239,507,cs),
(239,297,ls),
(239,284,o),
(246,277,o),
(259,277,cs),
(899,277,ls)
);
},
{
closed = 1;
nodes = (
(307,0,o),
(314,7,o),
(314,20,cs),
(314,980,ls),
(314,993,o),
(307,1000,o),
(294,1000,cs),
(84,1000,ls),
(71,1000,o),
(64,993,o),
(64,980,cs),
(64,20,ls),
(64,7,o),
(71,0,o),
(84,0,cs),
(294,0,ls)
);
},
{
closed = 1;
nodes = (
(1204,1,ls),
(1220,1,o),
(1226,12,o),
(1217,25,cs),
(981,384,ls),
(975,393,o),
(967,397,o),
(957,397,cs),
(717,400,ls),
(701,400,o),
(695,389,o),
(704,376,cs),
(935,13,ls),
(941,3,o),
(948,0,o),
(959,0,cs)
);
}
);
width = 1283;
}
);
},
{
glyphname = zero;
kernLeft = O;
kernRight = O;
lastChange = "2023-03-30 02:57:02 +0000";
layers = (
{
layerId = m01;
shapes = (
{
closed = 1;
nodes = (
(934,0,l),
(1143.177,0,o),
(1244,100.823,o),
(1244,310,c),
(1244,690,l),
(1244,899.177,o),
(1143.177,1000,o),
(934,1000,c),
(374,1000,l),
(164.823,1000,o),
(64,899.177,o),
(64,690,c),
(64,310,l),
(64,100.823,o),
(164.823,0,o),
(374,0,c)
);
},
{
closed = 1;
nodes = (
(340,250,o),
(314,276,o),
(314,310,c),
(314,690,l),
(314,724,o),
(340,750,o),
(374,750,c),
(934,750,l),
(968,750,o),
(994,724,o),
(994,690,c),
(994,310,l),
(994,276,o),
(968,250,o),
(934,250,c),
(374,250,l)
);
}
);
width = 1308;
}
);
unicode = 48;
},
{
glyphname = one;
kernLeft = "1";
kernRight = "1";
lastChange = "2023-03-30 02:57:02 +0000";
layers = (
{
layerId = m01;
shapes = (
{
closed = 1;
nodes = (
(438,0,ls),
(451,0,o),
(458,7,o),
(458,20,cs),
(458,980,ls),
(458,993,o),
(451,1000,o),
(438,1000,cs),
(148,1000,ls),
(137,1000,o),
(128,995,o),
(125,983,cs),
(77,815,ls),
(69,788,o),
(83,770,o),
(111,770,cs),
(253,770,l),
(208,815,l),
(208,20,ls),
(208,7,o),
(215,0,o),
(228,0,cs)
);
}
);
width = 558;
}
);
unicode = 49;
},
{
glyphname = two;
kernLeft = O;
kernRight = R;
lastChange = "2023-03-30 02:57:02 +0000";
layers = (
{
layerId = m01;
shapes = (
{
closed = 1;
nodes = (
(1183,0,ls),
(1196,0,o),
(1203,7,o),
(1203,20,cs),
(1203,210,ls),
(1203,223,o),
(1196,230,o),
(1183,230,cs),
(314,230,l),
(314,251,ls),
(314,308,o),
(329,329,o),
(385,337,cs),
(961,421,ls),
(1136,447,o),
(1214,531,o),
(1214,693,cs),
(1214,735,ls),
(1214,938,o),
(1093,1000,o),
(939,1000,cs),
(345,1000,ls),
(186,1000,o),
(84,928,o),
(84,749,cs),
(84,710,ls),
(84,697,o),
(91,690,o),
(104,690,cs),
(314,690,ls),
(327,690,o),
(334,697,o),
(334,710,cs),
(334,727,ls),
(334,759,o),
(344,770,o),
(373,770,cs),
(905,770,ls),
(938,770,o),
(964,741,o),
(964,703,cs),
(964,648,o),
(949,628,o),
(902,622,cs),
(339,546,ls),
(182,525,o),
(64,397,o),
(64,251,cs),
(64,20,ls),
(64,7,o),
(71,0,o),
(84,0,cs)
);
}
);
width = 1278;
}
);
unicode = 50;
},
{
glyphname = three;
kernLeft = O;
kernRight = O;
lastChange = "2023-03-30 02:57:02 +0000";
layers = (
{
layerId = m01;
shapes = (
{
closed = 1;
nodes = (
(905,0,ls),
(1119,0,o),
(1201,71,o),
(1201,255,cs),
(1201,446,o),
(1128,510,o),
(907,510,cs),
(496,510,l),
(496,421,ls),
(496,409,o),
(504,401,o),
(516,401,cs),
(864,401,ls),
(912,401,o),
(949,365,o),
(949,318,cs),
(949,269,o),
(912,230,o),
(864,230,cs),
(329,230,ls),
(303,230,o),
(294,239,o),
(294,265,cs),
(294,290,ls),
(294,303,o),
(287,310,o),
(274,310,cs),
(84,310,ls),
(71,310,o),
(64,303,o),
(64,290,cs),
(64,241,ls),
(64,79,o),
(144,0,o),
(305,0,cs)
);
},
{
closed = 1;
nodes = (
(877,492,ls),
(1098,492,o),
(1171,554,o),
(1171,739,cs),
(1171,928,o),
(1089,1000,o),
(875,1000,cs),
(305,1000,ls),
(144,1000,o),
(64,921,o),
(64,759,cs),
(64,710,ls),
(64,697,o),
(71,690,o),
(84,690,cs),
(274,690,ls),
(287,690,o),
(294,697,o),
(294,710,cs),
(294,735,ls),
(294,761,o),
(303,770,o),
(329,770,cs),
(831,770,ls),
(879,770,o),
(916,733,o),
(916,685,cs),
(916,637,o),
(879,601,o),
(831,601,cs),
(516,601,ls),
(503,601,o),
(496,594,o),
(496,581,cs),
(496,492,l)
);
}
);
width = 1235;
}
);
unicode = 51;
},
{
glyphname = four;
kernLeft = "4";
lastChange = "2023-03-30 02:57:02 +0000";
layers = (
{
layerId = m01;
shapes = (
{
closed = 1;
nodes = (
(1054,0,ls),
(1067,0,o),
(1074,7,o),
(1074,20,cs),
(1074,979,ls),
(1074,992,o),
(1067,999,o),
(1054,999,cs),
(662,999,ls),
(652,999,o),
(644,996,o),
(637,990,cs),
(75,488,ls),
(68,481,o),
(64,473,o),
(64,463,cs),
(64,217,ls),
(64,204,o),
(71,197,o),
(84,197,cs),
(1199,197,ls),
(1212,197,o),
(1219,204,o),
(1219,217,cs),
(1219,387,ls),
(1219,400,o),
(1212,407,o),
(1199,407,cs),
(314,407,l),
(314,380,l),
(784,799,l),
(705,769,l),
(869,769,l),
(824,814,l),
(824,20,ls),
(824,7,o),
(831,0,o),
(844,0,cs)
);
}
);
width = 1283;
}
);
unicode = 52;
},
{
glyphname = five;
lastChange = "2023-03-30 02:57:02 +0000";
layers = (
{
layerId = m01;
shapes = (
{
closed = 1;
nodes = (
(944,0,ls),
(1101,0,o),
(1219,65,o),
(1219,265,cs),
(1219,348,ls),
(1219,507,o),
(1103,615,o),
(947,615,cs),
(344,615,ls),
(331,615,o),
(324,622,o),
(324,635,cs),
(324,768,l),
(1149,768,ls),
(1162,768,o),
(1169,775,o),
(1169,788,cs),
(1169,978,ls),
(1169,991,o),
(1162,998,o),
(1149,998,cs),
(94,998,ls),
(81,998,o),
(74,991,o),
(74,978,cs),
(74,628,ls),
(74,457,o),
(171,385,o),
(323,385,cs),
(933,385,ls),
(960,385,o),
(969,376,o),
(969,348,cs),
(969,265,ls),
(969,239,o),
(959,230,o),
(930,230,cs),
(351,230,ls),
(324,230,o),
(314,240,o),
(314,269,cs),
(314,270,ls),
(314,283,o),
(307,290,o),
(294,290,cs),
(84,290,ls),
(71,290,o),
(64,283,o),
(64,270,cs),
(64,241,ls),
(64,58,o),
(174,0,o),
(314,0,cs)
);
}
);
width = 1283;
}
);
unicode = 53;
},
{
glyphname = six;
lastChange = "2023-03-30 03:28:06 +0000";
layers = (
{
layerId = m01;
shapes = (
{
closed = 1;
nodes = (
(908,0,ls),
(1098,0,o),
(1241,79,o),
(1241,321,cs),
(1241,496,o),
(1113,615,o),
(942,615,c),
(333,615,l),
(257,615,o),
(189,591,o),
(138,550,c),
(314,330,l),
(314,374,o),
(340,399,o),
(399,399,c),
(876,399,l),
(940,399,o),
(961,378,o),
(961,315,cs),
(961,251,o),
(940,230,o),
(876,230,cs),
(425,230,ls),
(342,230,o),
(314,255,o),
(314,330,cs),
(314,677,ls),
(314,729,o),
(355,770,o),
(408,770,cs),
(923,770,ls),
(960,770,o),
(981,748,o),
(981,710,cs),
(981,697,o),
(988,690,o),
(1001,690,cs),
(1191,690,ls),
(1204,690,o),
(1211,697,o),
(1211,710,cs),
(1211,735,ls),
(1211,913,o),
(1123,1000,o),
(946,1000,cs),
(386,1000,ls),
(170,1000,o),
(64,895,o),
(64,679,cs),
(64,321,ls),
(64,80,o),
(147,0,o),
(397,0,cs)
);
}
);
width = 1305;
}
);
unicode = 54;
},
{
glyphname = seven;
kernRight = "7";
lastChange = "2023-03-30 02:57:02 +0000";
layers = (
{
layerId = m01;
shapes = (
{
closed = 1;
nodes = (
(544,-2,ls),
(554,-2,o),
(562,2,o),
(568,10,cs),
(1172,753,ls),
(1178,761,o),
(1181,768,o),
(1181,778,cs),
(1181,978,ls),
(1181,991,o),
(1174,998,o),
(1161,998,cs),
(84,998,ls),
(71,998,o),
(64,991,o),
(64,978,cs),
(64,788,ls),
(64,775,o),
(71,768,o),
(84,768,cs),
(931,768,l),
(931,840,l),
(267,22,ls),
(256,8,o),
(262,-2,o),
(279,-2,cs)
);
}
);
width = 1245;
}
);
unicode = 55;
},
{
glyphname = eight;
lastChange = "2023-03-30 02:57:02 +0000";
layers = (
{
layerId = m01;
shapes = (
{
closed = 1;
nodes = (
(949,0,ls),
(1163,0,o),
(1245,71,o),
(1245,255,cs),
(1245,446,o),
(1172,510,o),
(951,510,cs),
(358,510,ls),
(137,510,o),
(64,446,o),
(64,255,cs),
(64,71,o),
(146,0,o),
(360,0,cs)
);
},
{
closed = 1;
nodes = (
(335,230,o),
(314,252,o),
(314,318,cs),
(314,380,o),
(335,401,o),
(399,401,cs),
(910,401,ls),
(974,401,o),
(995,380,o),
(995,318,cs),
(995,252,o),
(974,230,o),
(910,230,cs),
(399,230,ls)
);
},
{
closed = 1;
nodes = (
(365,601,o),
(344,622,o),
(344,685,cs),
(344,749,o),
(365,770,o),
(429,770,cs),
(880,770,ls),
(944,770,o),
(965,749,o),
(965,685,cs),
(965,622,o),
(944,601,o),
(880,601,cs),
(429,601,ls)
);
},
{
closed = 1;
nodes = (
(921,492,ls),
(1142,492,o),
(1215,554,o),
(1215,739,cs),
(1215,928,o),
(1133,1000,o),
(919,1000,cs),
(390,1000,ls),
(176,1000,o),
(94,928,o),
(94,739,cs),
(94,554,o),
(167,492,o),
(388,492,cs)
);
}
);
width = 1308;
}
);
unicode = 56;
},
{
glyphname = nine;
lastChange = "2023-03-30 03:28:55 +0000";
layers = (
{
layerId = m01;
shapes = (
{
closed = 1;
nodes = (
(1135,0,o),
(1241,105,o),
(1241,321,cs),
(1241,679,ls),
(1241,920,o),
(1158,1000,o),
(908,1000,cs),
(397,1000,ls),
(207,1000,o),
(64,921,o),
(64,679,cs),
(64,504,o),
(192,385,o),
(363,385,c),
(972,385,l),
(1048,385,o),
(1116,409,o),
(1167,450,c),
(991,670,l),
(991,626,o),
(965,601,o),
(906,601,c),
(429,601,l),
(365,601,o),
(344,622,o),
(344,685,cs),
(344,749,o),
(365,770,o),
(429,770,cs),
(880,770,ls),
(963,770,o),
(991,745,o),
(991,670,cs),
(991,323,ls),
(991,271,o),
(950,230,o),
(897,230,cs),
(382,230,ls),
(345,230,o),
(324,252,o),
(324,290,cs),
(324,303,o),
(317,310,o),
(304,310,cs),
(114,310,ls),
(101,310,o),
(94,303,o),
(94,290,cs),
(94,265,ls),
(94,87,o),
(182,0,o),
(359,0,cs),
(919,0,ls)
);
}
);
width = 1305;
}
);
unicode = 57;
},
{
glyphname = one.ss01;
kernLeft = "1";
kernRight = "1";
lastChange = "2023-03-30 02:57:02 +0000";
layers = (
{
layerId = m01;
shapes = (
{
closed = 1;
nodes = (
(696,1,ls),
(709,1,o),
(716,8,o),
(716,21,cs),
(714,979,ls),
(714,992,o),
(707,999,o),
(694,999,cs),
(370,999,ls),
(360,999,o),
(354,997,o),
(346,989,cs),
(71,716,ls),
(61,706,o),
(62,697,o),
(71,688,cs),
(218,551,ls),
(227,542,o),
(237,543,o),
(246,552,cs),
(496,801,l),
(464,814,l),
(466,21,ls),
(466,8,o),
(473,1,o),
(486,1,cs)
);
}
);
width = 816;
}
);
},
{
glyphname = period;
lastChange = "2023-03-30 02:57:02 +0000";
layers = (
{
layerId = m01;
shapes = (
{
closed = 1;
nodes = (
(310,0,ls),
(323,0,o),
(330,7,o),
(330,20,cs),
(330,210,ls),
(330,223,o),
(323,230,o),
(310,230,cs),
(120,230,ls),
(107,230,o),
(100,223,o),
(100,210,cs),
(100,20,ls),
(100,7,o),
(107,0,o),
(120,0,cs)
);
}
);
width = 430;
}
);
unicode = 46;
},
{
glyphname = comma;
lastChange = "2023-03-30 02:57:02 +0000";
layers = (
{
layerId = m01;
shapes = (
{
closed = 1;
nodes = (
(320,-54,ls),
(328,-46,o),
(330,-40,o),
(330,-30,cs),
(330,210,ls),
(330,223,o),
(323,230,o),
(310,230,cs),
(120,230,ls),
(107,230,o),
(100,223,o),
(100,210,cs),
(100,20,ls),
(100,7,o),
(105,0,o),
(120,0,cs),
(195,0,ls),
(208,0,o),
(215,-7,o),
(215,-20,cs),
(215,-124,ls),
(215,-142,o),
(228,-146,o),
(240,-134,cs)
);
}
);
width = 430;
}
);
unicode = 44;
},
{
glyphname = colon;
lastChange = "2023-03-30 03:26:35 +0000";
layers = (
{
layerId = m01;
shapes = (
{
closed = 1;
nodes = (
(310,0,ls),
(323,0,o),
(330,7,o),
(330,20,cs),
(330,210,ls),
(330,223,o),
(323,230,o),
(310,230,cs),
(120,230,ls),
(107,230,o),
(100,223,o),
(100,210,cs),
(100,20,ls),
(100,7,o),
(107,0,o),
(120,0,cs)
);
},
{
closed = 1;
nodes = (
(310,460,ls),
(323,460,o),
(330,467,o),
(330,480,cs),
(330,670,ls),
(330,683,o),
(323,690,o),
(310,690,cs),
(120,690,ls),
(107,690,o),
(100,683,o),
(100,670,cs),
(100,480,ls),
(100,467,o),
(107,460,o),
(120,460,cs)
);
}
);
width = 430;
}
);
unicode = 58;
},
{
glyphname = hyphen;
kernLeft = "-";
kernRight = "-";
lastChange = "2023-03-30 02:57:02 +0000";
layers = (
{
layerId = m01;
shapes = (
{
closed = 1;
nodes = (
(630,400,ls),
(643,400,o),
(650,407,o),
(650,420,cs),
(650,580,ls),
(650,593,o),
(643,600,o),
(630,600,cs),
(270,600,ls),
(257,600,o),
(250,593,o),
(250,580,cs),
(250,420,ls),
(250,407,o),
(257,400,o),
(270,400,cs)
);
}
);
width = 900;
}
);
unicode = 45;
},
{
glyphname = dieresiscomb;
lastChange = "2023-03-30 02:57:02 +0000";
layers = (
{
anchors = (
{
name = _top;
pos = (406,1000);
}
);
layerId = m01;
shapes = (
{
closed = 1;
nodes = (
(706,1185,ls),
(718,1185,o),
(725,1192,o),
(725,1204,cs),
(725,1394,ls),
(725,1406,o),
(718,1413,o),
(706,1413,cs),
(516,1413,ls),
(504,1413,o),
(497,1406,o),
(497,1394,cs),
(497,1204,ls),
(497,1192,o),
(504,1185,o),
(516,1185,cs)
);
},
{
closed = 1;
nodes = (
(295,1185,ls),
(307,1185,o),
(314,1192,o),
(314,1204,cs),
(314,1394,ls),
(314,1406,o),
(307,1413,o),
(295,1413,cs),
(105,1413,ls),
(93,1413,o),
(86,1406,o),
(86,1394,cs),
(86,1204,ls),
(86,1192,o),
(93,1185,o),
(105,1185,cs)
);
}
);
width = 811;
}
);
unicode = 776;
},
{
glyphname = dotaccentcomb;
lastChange = "2023-03-30 02:57:02 +0000";
layers = (
{
anchors = (
{
name = _top;
pos = (200,1000);
}
);
layerId = m01;
shapes = (
{
closed = 1;
nodes = (
(296,1184,ls),
(308,1184,o),
(315,1191,o),
(315,1203,cs),
(315,1395,ls),
(315,1407,o),
(308,1414,o),
(296,1414,cs),
(104,1414,ls),
(92,1414,o),
(85,1407,o),
(85,1395,cs),
(85,1203,ls),
(85,1191,o),
(92,1184,o),
(104,1184,cs)
);
}
);
width = 400;
}
);
unicode = 775;
},
{
glyphname = gravecomb;
lastChange = "2023-03-30 02:57:02 +0000";
layers = (
{
anchors = (
{
name = _top;
pos = (380,1000);
}
);
layerId = m01;
shapes = (
{
closed = 1;
nodes = (
(477,1156,ls),
(492,1156,o),
(498,1166,o),
(491,1180,cs),
(352,1442,ls),
(347,1451,o),
(339,1456,o),
(328,1456,cs),
(128,1456,ls),
(111,1456,o),
(105,1444,o),
(118,1431,cs),
(374,1166,ls),
(381,1158,o),
(389,1156,o),
(399,1156,cs)
);
}
);
width = 600;
}
);
unicode = 768;
},
{
glyphname = acutecomb;
lastChange = "2023-03-30 02:57:02 +0000";
layers = (
{
anchors = (
{
name = _top;
pos = (340,1000);
}
);
layerId = m01;
shapes = (
{
closed = 1;
nodes = (
(336,1156,ls),
(346,1156,o),
(354,1158,o),
(361,1166,cs),
(617,1431,ls),
(629,1444,o),
(624,1456,o),
(607,1456,cs),
(407,1456,ls),
(396,1456,o),
(388,1451,o),
(383,1442,cs),
(244,1180,ls),
(237,1166,o),
(243,1156,o),
(258,1156,cs)
);
}
);
width = 600;
}
);
unicode = 769;
},
{
glyphname = hungarumlautcomb;
lastChange = "2023-03-30 02:57:02 +0000";
layers = (
{
anchors = (
{
name = _top;
pos = (324,1000);
}
);
layerId = m01;
shapes = (
{
closed = 1;
nodes = (
(130,1156,ls),
(140,1156,o),
(148,1160,o),
(154,1168,cs),
(356,1432,ls),
(366,1445,o),
(360,1456,o),
(344,1456,cs),
(250,1456,ls),
(239,1456,o),
(231,1452,o),
(226,1442,cs),
(78,1180,ls),
(70,1167,o),
(77,1156,o),
(92,1156,cs)
);
},
{
closed = 1;
nodes = (
(450,1156,ls),
(460,1156,o),
(468,1160,o),
(474,1168,cs),
(676,1432,ls),
(686,1445,o),
(680,1456,o),
(664,1456,cs),
(570,1456,ls),
(559,1456,o),
(551,1452,o),
(546,1442,cs),
(398,1180,ls),
(390,1167,o),
(397,1156,o),
(412,1156,cs)
);
}
);
width = 696;
}
);
unicode = 779;
},
{
glyphname = caroncomb.alt;
lastChange = "2023-03-30 02:57:02 +0000";
layers = (
{
anchors = (
{
name = _top;
pos = (190,1000);
}
);
layerId = m01;
shapes = (
{
closed = 1;
nodes = (
(295,1186,ls),
(303,1194,o),
(305,1200,o),
(305,1210,cs),
(305,1450,ls),
(305,1463,o),
(298,1470,o),
(285,1470,cs),
(95,1470,ls),
(82,1470,o),
(75,1463,o),
(75,1450,cs),
(75,1260,ls),
(75,1247,o),
(80,1240,o),
(95,1240,cs),
(170,1240,ls),
(183,1240,o),
(190,1233,o),
(190,1220,cs),
(190,1116,ls),
(190,1098,o),
(203,1094,o),
(215,1106,cs)
);
}
);
width = 380;
}
);
},
{
glyphname = circumflexcomb;
lastChange = "2023-03-30 02:57:02 +0000";
layers = (
{
anchors = (
{
name = _top;
pos = (419,1000);
}
);
layerId = m01;
shapes = (
{
closed = 1;
nodes = (
(197,1191,ls),
(206,1191,o),
(213,1193,o),
(221,1198,cs),
(458,1344,l),
(380,1344,l),
(617,1198,ls),
(625,1193,o),
(632,1191,o),
(641,1191,cs),
(683,1191,ls),
(700,1191,o),
(705,1203,o),
(694,1216,cs),
(521,1419,ls),
(514,1427,o),
(506,1430,o),
(496,1430,cs),
(342,1430,ls),
(332,1430,o),
(324,1427,o),
(317,1419,cs),
(144,1216,ls),
(133,1203,o),
(138,1191,o),
(155,1191,cs)
);
}
);
width = 838;
}
);
unicode = 770;
},
{
glyphname = caroncomb;
lastChange = "2023-03-30 02:57:02 +0000";
layers = (
{
anchors = (
{
name = _top;
pos = (419,1000);
}
);
layerId = m01;
shapes = (
{
closed = 1;
nodes = (
(496,1191,ls),
(506,1191,o),
(514,1194,o),
(521,1202,cs),
(694,1405,ls),
(705,1418,o),
(700,1430,o),
(683,1430,cs),
(641,1430,ls),
(632,1430,o),
(625,1428,o),
(617,1423,cs),
(380,1277,l),
(458,1277,l),
(221,1423,ls),
(213,1428,o),
(206,1430,o),
(197,1430,cs),
(155,1430,ls),
(138,1430,o),
(133,1418,o),
(144,1405,cs),
(317,1202,ls),
(324,1194,o),
(332,1191,o),
(342,1191,cs)
);
}
);
width = 838;
}
);
unicode = 780;
},
{
glyphname = brevecomb;
lastChange = "2023-03-30 03:51:15 +0000";
layers = (
{
anchors = (
{
name = _top;
pos = (416,1000);
}
);
layerId = m01;
shapes = (
{
closed = 1;
nodes = (
(573,1157,o),
(695,1227,o),
(752,1356,cs),
(762,1378,o),
(756,1394,o),
(740,1402,cs),
(723,1410,o),
(708,1404,o),
(693,1388,cs),
(648,1340,o),
(557,1279,o),
(416,1279,cs),
(275,1279,o),
(184,1340,o),
(139,1388,cs),
(124,1404,o),
(109,1410,o),
(92,1402,cs),
(76,1394,o),
(70,1378,o),
(80,1356,cs),
(137,1227,o),
(259,1157,o),
(416,1157,cs)
);
}
);
width = 832;
}
);
unicode = 774;
},
{
glyphname = ringcomb;
lastChange = "2023-03-30 02:57:02 +0000";
layers = (
{
anchors = (
{
name = _top;
pos = (275,1000);
}
);
layerId = m01;
shapes = (
{
closed = 1;
nodes = (
(386,1100,o),
(475,1189,o),
(475,1300,cs),
(475,1411,o),
(386,1500,o),
(275,1500,cs),
(164,1500,o),
(75,1411,o),
(75,1300,cs),
(75,1189,o),
(164,1100,o),
(275,1100,cs)
);
},
{
closed = 1;
nodes = (
(213,1189,o),
(164,1238,o),
(164,1300,cs),
(164,1362,o),
(213,1411,o),
(275,1411,cs),
(337,1411,o),
(386,1362,o),
(386,1300,cs),
(386,1238,o),
(337,1189,o),
(275,1189,cs)
);
}
);
width = 550;
}
);
unicode = 778;
},
{
glyphname = tildecomb;
lastChange = "2023-03-30 06:29:27 +0000";
layers = (
{
anchors = (
{
name = _top;
pos = (417,1000);
}
);
layerId = m01;
shapes = (
{
closed = 1;
nodes = (
(584,1130,o),
(651,1156,o),
(698,1190,cs),
(733,1215,o),
(740,1230,o),
(740,1244,cs),
(740,1265,o),
(724,1283,o),
(702,1283,cs),
(692,1283,o),
(681,1280,o),
(670,1272,cs),
(648,1258,o),
(629,1253,o),
(601,1254,cs),
(525,1255,o),
(484,1325,o),
(341,1325,cs),
(252,1325,o),
(184,1299,o),
(136,1262,cs),
(102,1237,o),
(94,1222,o),
(94,1208,cs),
(94,1187,o),
(111,1170,o),
(132,1170,cs),
(142,1170,o),
(152,1173,o),
(163,1180,cs),
(188,1197,o),
(207,1202,o),
(238,1201,cs),
(311,1200,o),
(350,1130,o),
(496,1130,cs)
);
}
);
width = 832;
}
);
unicode = 771;
},
{
glyphname = macroncomb;
lastChange = "2023-03-30 02:57:02 +0000";
layers = (
{
anchors = (
{
name = _top;
pos = (400,1000);
}
);
layerId = m01;
shapes = (
{
closed = 1;
nodes = (
(705,1185,ls),
(718,1185,o),
(725,1192,o),
(725,1205,cs),
(725,1295,ls),
(725,1308,o),
(718,1315,o),
(705,1315,cs),
(95,1315,ls),
(82,1315,o),
(75,1308,o),
(75,1295,cs),
(75,1205,ls),
(75,1192,o),
(82,1185,o),
(95,1185,cs)
);
}
);
width = 800;
}
);
unicode = 772;
},
{
glyphname = commaturnedabovecomb;
lastChange = "2023-03-30 02:57:02 +0000";
layers = (
{
anchors = (
{
name = _top;
pos = (190,1000);
}
);
layerId = m01;
shapes = (
{
closed = 1;
nodes = (
(285,1097,ls),
(298,1097,o),
(305,1104,o),
(305,1117,cs),
(305,1307,ls),
(305,1320,o),
(300,1327,o),
(285,1327,cs),
(210,1327,ls),
(197,1327,o),
(190,1334,o),
(190,1347,cs),
(190,1451,ls),
(190,1469,o),
(177,1473,o),
(165,1461,cs),
(85,1381,ls),
(77,1373,o),
(75,1367,o),
(75,1357,cs),
(75,1117,ls),
(75,1104,o),
(82,1097,o),
(95,1097,cs)
);
}
);
width = 380;
}
);
unicode = 786;
},
{
glyphname = commaaccentcomb;
lastChange = "2023-03-30 02:57:02 +0000";
layers = (
{
anchors = (
{
name = _bottom;
pos = (200,0);
}
);
layerId = m01;
shapes = (
{
closed = 1;
nodes = (
(295,-409,ls),
(303,-401,o),
(305,-395,o),
(305,-385,cs),
(305,-145,ls),
(305,-132,o),
(298,-125,o),
(285,-125,cs),
(95,-125,ls),
(82,-125,o),
(75,-132,o),
(75,-145,cs),
(75,-335,ls),
(75,-348,o),
(80,-355,o),
(95,-355,cs),
(170,-355,ls),
(183,-355,o),
(190,-362,o),
(190,-375,cs),
(190,-479,ls),
(190,-497,o),
(203,-501,o),
(215,-489,cs)
);
}
);
width = 380;
}
);
unicode = 806;
},
{
glyphname = cedillacomb;
lastChange = "2023-03-30 02:57:02 +0000";
layers = (
{
anchors = (
{
name = _bottom;
pos = (208,0);
}
);
layerId = m01;
shapes = (
{
closed = 1;
nodes = (
(353,-333,ls),
(418,-333,o),
(453,-298,o),
(453,-234,cs),
(453,-182,ls),
(453,-118,o),
(418,-82,o),
(353,-82,cs),
(213,-82,l),
(258,-127,l),
(258,50,l),
(158,50,l),
(158,-156,ls),
(158,-173,o),
(167,-183,o),
(184,-183,cs),
(397,-183,l),
(352,-138,l),
(352,-278,l),
(397,-233,l),
(95,-233,ls),
(82,-233,o),
(75,-240,o),
(75,-253,cs),
(75,-313,ls),
(75,-326,o),
(82,-333,o),
(95,-333,cs)
);
}
);
width = 528;
}
);
unicode = 807;
},
{
glyphname = ogonekcomb;
lastChange = "2023-03-30 02:57:02 +0000";
layers = (
{
anchors = (
{
name = _bottom;
pos = (282,0);
}
);
layerId = m01;
shapes = (
{
closed = 1;
nodes = (
(425,-326,l),
(425,-226,l),
(200,-226,l),
(186,-226,o),
(175,-215,o),
(175,-201,c),
(175,-185,o),
(181,-171,o),
(194,-159,c),
(354,2,l),
(284,72,l),
(124,-87,l),
(91,-120,o),
(75,-158,o),
(75,-201,c),
(75,-271,o),
(130,-326,o),
(200,-326,c)
);
}
);
width = 500;
}
);
unicode = 808;
},
